<?xml version="1.0" standalone="no"?>
<!DOCTYPE svg PUBLIC "-//W3C//DTD SVG 20010904//EN"
 "http://www.w3.org/TR/2001/REC-SVG-20010904/DTD/svg10.dtd">
<svg version="1.0" xmlns="http://www.w3.org/2000/svg"
 width="260.000000pt" height="260.000000pt" viewBox="0 0 260.000000 260.000000"
 preserveAspectRatio="xMidYMid meet">
<metadata>
Created by potrace 1.11, written by Peter Selinger 2001-2013
</metadata>
<g transform="translate(0.000000,260.000000) scale(0.100000,-0.100000)"
fill="#000000" stroke="none">
<path d="M955 2566 c-47 -15 -138 -56 -145 -65 -3 -3 -24 -19 -48 -34 -59 -38
-75 -52 -159 -137 -42 -41 -102 -111 -135 -155 -33 -44 -65 -87 -71 -96 -7 -8
-13 -22 -15 -30 -2 -7 -7 -16 -11 -19 -15 -10 -80 -137 -74 -144 3 -3 1 -6 -5
-6 -7 0 -12 -5 -12 -11 0 -5 -9 -30 -20 -53 -35 -78 -71 -220 -77 -306 -6 -88
10 -200 28 -200 6 0 8 -4 4 -9 -10 -17 57 -83 104 -103 92 -39 254 -2 363 84
21 16 44 27 50 25 10 -4 10 -6 0 -6 -31 -2 -272 -250 -272 -279 0 -6 -4 -12
-8 -14 -11 -4 -91 -128 -128 -198 -46 -85 -131 -300 -119 -300 2 0 -2 -21 -9
-47 -30 -111 -11 -282 35 -332 11 -11 19 -24 19 -29 0 -21 85 -55 144 -58 89
-5 153 15 276 89 70 41 218 178 273 250 12 16 30 37 40 45 9 9 17 22 17 28 0
7 7 15 16 18 9 4 14 9 11 12 -3 4 -1 11 4 18 41 48 49 61 49 73 0 7 4 13 9 13
4 0 33 51 64 113 55 111 101 241 113 318 9 54 20 57 27 6 11 -76 58 -209 114
-322 30 -60 61 -117 69 -126 8 -8 14 -19 14 -23 0 -4 4 -12 10 -19 5 -7 28
-37 49 -67 53 -74 83 -108 166 -192 70 -71 183 -158 204 -158 6 0 11 -4 11 -8
0 -8 36 -26 105 -53 48 -18 162 -20 205 -3 44 18 87 62 115 119 17 33 20 60
19 160 -1 101 -5 134 -28 210 -15 50 -36 109 -46 133 -11 23 -19 45 -20 47 0
3 -17 35 -37 72 -54 101 -58 108 -63 113 -15 15 -50 71 -50 80 0 5 -3 10 -8
10 -4 0 -14 11 -22 24 -35 56 -203 236 -221 236 -4 0 -10 7 -13 16 -6 15 -5
15 16 0 132 -95 299 -121 388 -62 46 30 89 90 98 138 8 40 9 202 0 243 -29
146 -99 310 -211 490 -67 108 -251 311 -319 353 -16 9 -28 20 -28 24 0 4 -7 8
-15 8 -7 0 -18 6 -22 13 -4 7 -35 25 -68 41 -33 15 -68 31 -77 37 -29 15 -141
22 -182 11 -21 -6 -53 -21 -71 -33 -34 -24 -81 -105 -87 -151 -2 -15 -7 -30
-10 -34 -4 -3 -5 2 -4 13 2 10 1 23 -3 28 -3 6 -7 19 -8 29 -4 25 -36 76 -65
103 -51 48 -160 66 -243 39z m338 -399 c10 -73 57 -207 108 -310 46 -93 135
-237 175 -284 10 -12 30 -36 44 -54 37 -48 171 -178 202 -197 15 -9 28 -20 28
-24 0 -4 -28 12 -62 36 -92 64 -180 98 -261 102 -38 2 -80 -2 -95 -7 -35 -13
-92 -52 -92 -62 0 -5 -7 -15 -15 -23 -8 -9 -20 -35 -26 -60 -6 -24 -14 -44
-18 -44 -4 0 -12 19 -18 43 -15 55 -72 120 -124 141 -53 21 -160 15 -223 -12
-24 -11 -47 -18 -50 -14 -3 3 -6 0 -6 -6 0 -7 -6 -12 -13 -12 -7 0 -23 -9 -35
-20 -12 -12 -22 -18 -22 -15 0 3 -12 -2 -27 -11 -19 -12 -16 -7 9 15 75 64
153 147 205 216 69 91 93 124 93 128 0 3 17 34 38 68 42 70 102 193 107 220 2
10 8 26 14 37 5 10 12 30 15 43 3 13 8 35 11 49 8 30 16 70 17 88 3 28 16 9
21 -31z"/>
</g>
</svg>
