<!-- Created with Inkscape (http://www.inkscape.org/) -->
<svg id="svg2" xmlns:rdf="http://www.w3.org/1999/02/22-rdf-syntax-ns#" xmlns="http://www.w3.org/2000/svg" height="64" viewBox="0 0 63.999999 63.999999" width="64" version="1.1" xmlns:cc="http://creativecommons.org/ns#" xmlns:dc="http://purl.org/dc/elements/1.1/">
 <g id="layer1" transform="translate(0 -988.36)" fill="#5f6a9f">
  <path id="rect4173-7-5" d="m27.641 988.55c-1.6926 0-3.0623 1.2653-3.2617 2.9024-4.0873-0.00003-8.1737-0.002-12.26-0.002-3.1288 0-5.695 1.0526-5.9961 2.4219 0.00757 0.71501-0.019531 2.0216-0.019531 2.9863h52.869c0.01345-0.9702 0.01953-2.9473 0.01953-2.9473-0.29918-1.3701-2.905-2.459-6.0352-2.459h-12.238c-0.1993-1.6371-1.573-2.9024-3.2656-2.9024h-9.8125z"/>
  <path id="rect3337" d="m9.3197 998.69s4.2051 53.465 4.2051 53.465l38.447 0.0001s3.8046-53.265 3.8046-53.265l-46.456-0.20024m10.171 5.9935l0.09023 0.0003c1.7443 0.01 3.2073 1.67 3.2805 3.7025 0 0 1.3255 36.77 1.3255 36.77 0.0557 1.5452-1.1032 2.7749-2.5988 2.7744h-0.07737c-1.4961-0.0005-2.772-1.2317-2.8602-2.7775 0 0-2.1001-36.789-2.1001-36.789-0.11609-2.0337 1.1954-3.6872 2.9403-3.6805m13.077 0.05s0.16858 0.0006 0.16858 0.0006c1.7406 0.01 3.1288 1.6679 3.1141 3.698 0 0-0.26657 36.73-0.26657 36.73-0.0112 1.5437-1.2211 2.7723-2.7141 2.7718l-0.14459-0.0001c-1.4934-0.0005-2.7141-1.2305-2.7357-2.7749l-0.5145-36.75c-0.02844-2.0313 1.3516-3.6828 3.0928-3.6761m13.049 0.05l0.08985 0.0004c1.737 0.01 3.0535 1.6659 2.9522 3.6935l-1.8337 36.692c-0.07708 1.5422-1.3389 2.7697-2.8292 2.7692h-0.07709c-1.4907-0.0005-2.6547-1.2294-2.6099-2.7724l1.0651-36.71c0.05886-2.0288 1.5053-3.6783 3.2428-3.6717"/>
 </g>
</svg>
