<!-- Created with Inkscape (http://www.inkscape.org/) -->
<svg id="svg2" xmlns:rdf="http://www.w3.org/1999/02/22-rdf-syntax-ns#" xmlns="http://www.w3.org/2000/svg" height="64" viewBox="0 0 63.999999 63.999999" width="64" version="1.1" xmlns:cc="http://creativecommons.org/ns#" xmlns:dc="http://purl.org/dc/elements/1.1/">
 <path id="rect4138" fill="#5f6a9f" d="m26.439 4.8652c-8.112 0-14.642 6.5318-14.642 14.645v10.32h-9.8986c-1.0516 0-1.8984 0.747-1.8984 1.674v30.824c0 0.927 0.84678 1.672 1.8984 1.672h60.204c1.051 0 1.898-0.745 1.898-1.672v-30.824c0-0.927-0.847-1.674-1.898-1.674h-9.899v-10.32c0-8.113-6.532-14.645-14.644-14.645l-11.12 0.0002zm3.436 7.4238h4.248c5.208 0 9.402 4.192 9.402 9.4v8.141h-23.05v-8.141c0-5.208 4.192-9.4 9.4-9.4zm2.125 26.652c3.59 0 6.5 2.564 6.5 5.727-0.001 2.379-1.671 4.51-4.195 5.353v7.288h-4.61v-7.293c-2.522-0.843-4.191-2.971-4.195-5.348 0-3.163 2.91-5.727 6.5-5.727z"/>
</svg>
