<!-- Created with Inkscape (http://www.inkscape.org/) -->
<svg id="svg2" xmlns:rdf="http://www.w3.org/1999/02/22-rdf-syntax-ns#" xmlns="http://www.w3.org/2000/svg" height="64" viewBox="0 0 63.999999 63.999999" width="64" version="1.1" xmlns:cc="http://creativecommons.org/ns#" xmlns:dc="http://purl.org/dc/elements/1.1/">
 <path id="rect4138" fill="#5f6a9f" d="m32.404-0.0039062c-3.883-0.16013-7.558 1.4284-10.213 5.1406l-9.144 12.459 7.16 5.236 6.611-9.248c3.03-4.2367 8.879-5.2089 13.116-2.18l3.455 2.471c4.236 3.029 5.211 8.879 2.181 13.115l-2.031 2.842-41.641-0.002c-1.0512 0-1.898 0.747-1.898 1.674v30.822c0 0.927 0.84682 1.674 1.8984 1.674h60.204c1.051 0 1.898-0.747 1.898-1.674v-30.822c0-0.927-0.847-1.672-1.898-1.672h-7.926c4.357-6.561 2.784-15.38-3.674-19.998l-9.045-6.4668c-2.887-2.0644-6.033-3.2466-9.053-3.3711zm-0.404 38.945c3.59 0 6.5 2.564 6.5 5.727-0.001 2.379-1.671 4.51-4.195 5.353v7.288h-4.61v-7.293c-2.523-0.843-4.191-2.972-4.195-5.348 0-3.163 2.91-5.727 6.5-5.727z"/>
</svg>
