<!-- Created with Inkscape (http://www.inkscape.org/) -->
<svg id="svg2" xmlns:rdf="http://www.w3.org/1999/02/22-rdf-syntax-ns#" xmlns="http://www.w3.org/2000/svg" height="64" viewBox="0 0 63.999999 63.999999" width="64" version="1.1" xmlns:cc="http://creativecommons.org/ns#" xmlns:dc="http://purl.org/dc/elements/1.1/">
 <g id="layer1" transform="translate(0 -988.36)">
  <path id="rect3336" transform="translate(0 988.36)" fill="#fff" d="m9.2031 0c-5.0987 0-9.2031 4.1044-9.2031 9.2031v45.594c0 5.099 4.1044 9.203 9.2031 9.203h45.594c5.099 0 9.203-4.104 9.203-9.203v-45.594c0-5.0986-4.104-9.203-9.203-9.203h-45.594zm42.666 5.7012a5.9245 5.9245 0 0 1 5.924 5.9258 5.9245 5.9245 0 0 1 -5.924 5.924 5.9245 5.9245 0 0 1 -5.926 -5.924 5.9245 5.9245 0 0 1 5.926 -5.9258zm-39.914 0.2011a5.9245 5.9245 0 0 1 5.926 5.9237 5.9245 5.9245 0 0 1 -5.926 5.924 5.9245 5.9245 0 0 1 -5.9238 -5.924 5.9245 5.9245 0 0 1 5.9238 -5.9237zm0 40.1a5.9245 5.9245 0 0 1 5.926 5.926 5.9245 5.9245 0 0 1 -5.926 5.924 5.9245 5.9245 0 0 1 -5.9238 -5.924 5.9245 5.9245 0 0 1 5.9238 -5.926zm39.713 0.201a5.9245 5.9245 0 0 1 5.924 5.924 5.9245 5.9245 0 0 1 -5.924 5.926 5.9245 5.9245 0 0 1 -5.924 -5.926 5.9245 5.9245 0 0 1 5.924 -5.924z"/>
 </g>
</svg>
