<?xml version="1.0" encoding="UTF-8" standalone="no"?>
<!-- Created with Inkscape (http://www.inkscape.org/) -->
<svg id="svg2" xmlns:rdf="http://www.w3.org/1999/02/22-rdf-syntax-ns#" xmlns="http://www.w3.org/2000/svg" height="256" viewBox="0 0 256 256" width="256" version="1.1" xmlns:cc="http://creativecommons.org/ns#" xmlns:dc="http://purl.org/dc/elements/1.1/">
 <rect id="rect4140-9" fill-opacity="0" transform="matrix(.0039607 -.99999 -1 -0.00177 0 0)" height="191.49" width="193.65" stroke="#000" y="-242.11" x="-225.57" stroke-width="4.0065"/>
 <rect id="rect4140-5-7" transform="matrix(.0033241 -.99999 -1 -.0021090 0 0)" height="39.342" width="197.92" y="-49.886" x="-227.9"/>
 <rect id="rect4140-5-3-5" transform="matrix(.0032619 -.99999 -1 -.0021492 0 0)" height="4.0038" width="194.99" y="-91.977" x="-226.22"/>
 <rect id="rect4140-5-3-4-4" transform="matrix(.0032619 -.99999 -1 -.0021492 0 0)" height="4.0038" width="194.99" y="-130.21" x="-226.14"/>
 <rect id="rect4140-5-3-4-1-1" transform="matrix(.0032619 -.99999 -1 -.0021492 0 0)" height="4.0038" width="194.99" y="-169.1" x="-226.06"/>
 <rect id="rect4140-5-3-4-1-1-1" transform="matrix(.0032619 -.99999 -1 -.0021492 0 0)" height="4.0038" width="194.99" y="-207.55" x="-225.97"/>
</svg>
